<svg width="21" height="21" viewBox="0 0 21 21" fill="none" xmlns="http://www.w3.org/2000/svg">
<path d="M10.2852 0.819336C4.76231 0.819336 0.285156 5.29649 0.285156 10.8193C0.285156 16.3422 4.76231 20.8193 10.2852 20.8193C15.808 20.8193 20.2852 16.3422 20.2852 10.8193C20.2793 5.29896 15.8056 0.825237 10.2852 0.819336ZM10.2852 19.3908C5.55128 19.3908 1.71372 15.5532 1.71372 10.8193C1.71372 6.08546 5.55128 2.2479 10.2852 2.2479C15.019 2.2479 18.8566 6.08546 18.8566 10.8193C18.8515 15.5511 15.0169 19.3857 10.2852 19.3908Z" fill="black"/>
<path d="M10.7852 3.28418C10.3709 3.28418 10.0351 3.61997 10.0351 4.03419V9.2842H4.78517C4.37094 9.2842 4.03516 9.61999 4.03516 10.0342C4.03516 10.4484 4.37094 10.7842 4.78517 10.7842H10.7852C11.1994 10.7842 11.5352 10.4484 11.5352 10.0342V4.03419C11.5352 3.61997 11.1994 3.28418 10.7852 3.28418Z" fill="black"/>
</svg>
